<svg width="1200" height="1200" viewBox="0 0 1200 1200" fill="none" xmlns="http://www.w3.org/2000/svg">
<g clip-path="url(#clip0_104_85)">
<rect width="1200" height="1200" fill="white"/>
<rect width="1200" height="1200" fill="#D9D9D9"/>
<circle cx="600" cy="600" r="597" fill="#D9D9D9"/>
<circle cx="600" cy="600" r="597" stroke="black" stroke-width="6"/>
<circle cx="600" cy="600" r="597" stroke="black" stroke-width="6"/>
<circle cx="600" cy="600" r="521" fill="#D9D9D9"/>
<circle cx="600" cy="600" r="521" stroke="black" stroke-width="6"/>
<circle cx="600" cy="600" r="521" stroke="black" stroke-width="6"/>
<circle cx="600" cy="600" r="443" fill="#D9D9D9"/>
<circle cx="600" cy="600" r="443" stroke="black" stroke-width="6"/>
<circle cx="600" cy="600" r="443" stroke="black" stroke-width="6"/>
<circle cx="600" cy="600" r="370" fill="#D9D9D9"/>
<circle cx="600" cy="600" r="370" stroke="black" stroke-width="6"/>
<circle cx="600" cy="600" r="370" stroke="black" stroke-width="6"/>
<circle cx="600" cy="600" r="294" fill="#D9D9D9"/>
<circle cx="600" cy="600" r="294" stroke="black" stroke-width="6"/>
<circle cx="600" cy="600" r="294" stroke="black" stroke-width="6"/>
<circle cx="600" cy="600" r="216" fill="#D9D9D9"/>
<circle cx="600" cy="600" r="216" stroke="black" stroke-width="6"/>
<circle cx="600" cy="600" r="216" stroke="black" stroke-width="6"/>
<circle cx="600" cy="600" r="140" fill="#D9D9D9"/>
<circle cx="600" cy="600" r="140" stroke="black" stroke-width="6"/>
<circle cx="600" cy="600" r="140" stroke="black" stroke-width="6"/>
<line x1="79.5" y1="1243" x2="79.4999" y2="-85" stroke="black" stroke-width="5"/>
<line x1="79.5" y1="1243" x2="79.4999" y2="-85" stroke="black" stroke-width="5"/>
<line x1="156.5" y1="1243" x2="156.5" y2="-85" stroke="black" stroke-width="5"/>
<line x1="156.5" y1="1243" x2="156.5" y2="-85" stroke="black" stroke-width="5"/>
<line x1="229.5" y1="1254" x2="229.5" y2="-74" stroke="black" stroke-width="5"/>
<line x1="229.5" y1="1254" x2="229.5" y2="-74" stroke="black" stroke-width="5"/>
<line x1="306.5" y1="1254" x2="306.5" y2="-74" stroke="black" stroke-width="5"/>
<line x1="306.5" y1="1254" x2="306.5" y2="-74" stroke="black" stroke-width="5"/>
<line x1="383.5" y1="1254" x2="383.5" y2="-74" stroke="black" stroke-width="5"/>
<line x1="383.5" y1="1254" x2="383.5" y2="-74" stroke="black" stroke-width="5"/>
<line x1="460.5" y1="1254" x2="460.5" y2="-74" stroke="black" stroke-width="5"/>
<line x1="460.5" y1="1254" x2="460.5" y2="-74" stroke="black" stroke-width="5"/>
<line x1="740.5" y1="1243" x2="740.5" y2="-85" stroke="black" stroke-width="5"/>
<line x1="740.5" y1="1243" x2="740.5" y2="-85" stroke="black" stroke-width="5"/>
<line x1="817.5" y1="1243" x2="817.5" y2="-85" stroke="black" stroke-width="5"/>
<line x1="817.5" y1="1243" x2="817.5" y2="-85" stroke="black" stroke-width="5"/>
<line x1="890.5" y1="1254" x2="890.5" y2="-74" stroke="black" stroke-width="5"/>
<line x1="890.5" y1="1254" x2="890.5" y2="-74" stroke="black" stroke-width="5"/>
<line x1="967.5" y1="1254" x2="967.5" y2="-74" stroke="black" stroke-width="5"/>
<line x1="967.5" y1="1254" x2="967.5" y2="-74" stroke="black" stroke-width="5"/>
<line x1="537.5" y1="1243" x2="537.5" y2="-85" stroke="black" stroke-width="5"/>
<line x1="537.5" y1="1243" x2="537.5" y2="-85" stroke="black" stroke-width="5"/>
<line x1="610.5" y1="1254" x2="610.5" y2="-74" stroke="black" stroke-width="5"/>
<line x1="610.5" y1="1254" x2="610.5" y2="-74" stroke="black" stroke-width="5"/>
<line x1="674.5" y1="1254" x2="674.5" y2="-74" stroke="black" stroke-width="5"/>
<line x1="674.5" y1="1254" x2="674.5" y2="-74" stroke="black" stroke-width="5"/>
<line x1="1044.5" y1="1254" x2="1044.5" y2="-74" stroke="black" stroke-width="5"/>
<line x1="1044.5" y1="1254" x2="1044.5" y2="-74" stroke="black" stroke-width="5"/>
<line x1="1121.5" y1="1254" x2="1121.5" y2="-74" stroke="black" stroke-width="5"/>
<line x1="1121.5" y1="1254" x2="1121.5" y2="-74" stroke="black" stroke-width="5"/>
<line x1="-55.5" y1="61" x2="1272.5" y2="61" stroke="black" stroke-width="5"/>
<line x1="-55.5" y1="61" x2="1272.5" y2="61" stroke="black" stroke-width="5"/>
<line x1="-55.5" y1="138" x2="1272.5" y2="138" stroke="black" stroke-width="5"/>
<line x1="-55.5" y1="138" x2="1272.5" y2="138" stroke="black" stroke-width="5"/>
<line x1="-66.5" y1="211" x2="1261.5" y2="211" stroke="black" stroke-width="5"/>
<line x1="-66.5" y1="211" x2="1261.5" y2="211" stroke="black" stroke-width="5"/>
<line x1="-66.5" y1="288" x2="1261.5" y2="288" stroke="black" stroke-width="5"/>
<line x1="-66.5" y1="288" x2="1261.5" y2="288" stroke="black" stroke-width="5"/>
<line x1="-66.5" y1="365" x2="1261.5" y2="365" stroke="black" stroke-width="5"/>
<line x1="-66.5" y1="365" x2="1261.5" y2="365" stroke="black" stroke-width="5"/>
<line x1="-66.5" y1="442" x2="1261.5" y2="442" stroke="black" stroke-width="5"/>
<line x1="-66.5" y1="442" x2="1261.5" y2="442" stroke="black" stroke-width="5"/>
<line x1="-66.5" y1="442" x2="1261.5" y2="442" stroke="black" stroke-width="5"/>
<line x1="-66.5" y1="442" x2="1261.5" y2="442" stroke="black" stroke-width="5"/>
<line x1="-66.5" y1="519" x2="1261.5" y2="519" stroke="black" stroke-width="5"/>
<line x1="-66.5" y1="519" x2="1261.5" y2="519" stroke="black" stroke-width="5"/>
<line x1="-66.5" y1="596" x2="1261.5" y2="596" stroke="black" stroke-width="5"/>
<line x1="-66.5" y1="596" x2="1261.5" y2="596" stroke="black" stroke-width="5"/>
<line x1="-66.5" y1="664" x2="1261.5" y2="664" stroke="black" stroke-width="5"/>
<line x1="-66.5" y1="664" x2="1261.5" y2="664" stroke="black" stroke-width="5"/>
<line x1="-55.5" y1="722" x2="1272.5" y2="722" stroke="black" stroke-width="5"/>
<line x1="-55.5" y1="722" x2="1272.5" y2="722" stroke="black" stroke-width="5"/>
<line x1="-55.5" y1="799" x2="1272.5" y2="799" stroke="black" stroke-width="5"/>
<line x1="-55.5" y1="799" x2="1272.5" y2="799" stroke="black" stroke-width="5"/>
<line x1="-66.5" y1="872" x2="1261.5" y2="872" stroke="black" stroke-width="5"/>
<line x1="-66.5" y1="872" x2="1261.5" y2="872" stroke="black" stroke-width="5"/>
<line x1="-66.5" y1="949" x2="1261.5" y2="949" stroke="black" stroke-width="5"/>
<line x1="-66.5" y1="949" x2="1261.5" y2="949" stroke="black" stroke-width="5"/>
<line x1="-66.5" y1="1026" x2="1261.5" y2="1026" stroke="black" stroke-width="5"/>
<line x1="-66.5" y1="1026" x2="1261.5" y2="1026" stroke="black" stroke-width="5"/>
<line x1="-66.5" y1="1103" x2="1261.5" y2="1103" stroke="black" stroke-width="5"/>
<line x1="-66.5" y1="1103" x2="1261.5" y2="1103" stroke="black" stroke-width="5"/>
</g>
<defs>
<clipPath id="clip0_104_85">
<rect width="1200" height="1200" fill="white"/>
</clipPath>
</defs>
</svg>
