<?xml version="1.0" encoding="utf-8"?>
<!-- Generator: Adobe Illustrator 28.0.0, SVG Export Plug-In . SVG Version: 6.00 Build 0)  -->
<svg version="1.1" id="Слой_1" xmlns="http://www.w3.org/2000/svg" xmlns:xlink="http://www.w3.org/1999/xlink" x="0px" y="0px"
	 viewBox="0 0 841.9 255.1" style="enable-background:new 0 0 841.9 255.1;" xml:space="preserve">
<g>
	<path d="M238.5,20.9v203c0,2.7-1.1,5.3-3,7.2l-10.2,10.2c-1.9,1.9-4.5,3-7.2,3h-62.1c-5.6,0-10.2-4.6-10.2-10.2v-27.9
		c0-9.1-11-13.7-17.5-7.2l-30,30l-12.4,12.4c-1.9,1.9-4.5,3-7.2,3h-63c-5.6,0-10.2-4.6-10.2-10.2v-64.4c0-2.7,1.1-5.3,3-7.2
		L145.7,25.3l11.6-11.6c1.9-1.9,4.5-3,7.2-3h63.7C233.9,10.7,238.5,15.3,238.5,20.9z"/>
	<path d="M594.4,233.8V31.3c0-2.8,1.1-5.5,3.1-7.5l10-10c2-2,4.7-3.1,7.5-3.1h61.5c5.9,0,10.6,4.8,10.6,10.6v26.5
		c0,9.5,11.4,14.2,18.1,7.5l29.3-29.3l12.2-12.3c2-2,4.7-3.1,7.5-3.1h62.4c5.9,0,10.6,4.8,10.6,10.6v63.9c0,2.8-1.1,5.5-3.1,7.5
		L687.2,229.8l-11.5,11.5c-2,2-4.7,3.1-7.5,3.1H605C599.2,244.4,594.4,239.7,594.4,233.8z"/>
	<path d="M401.2,10.7H271.5c-6.5,0-11.8,5.3-11.8,11.8v210.1c0,6.5,5.3,11.8,11.8,11.8h129.7c6.5,0,11.8-5.3,11.8-11.8V22.5
		C413,16,407.7,10.7,401.2,10.7z M362.4,205.7h-20.4c-3.1,0-5.6-3.2-5.6-7.1v-142c0-3.9,2.5-7.1,5.6-7.1h20.4c3.1,0,5.6,3.2,5.6,7.1
		v142.1C367.9,202.5,365.5,205.7,362.4,205.7z"/>
	<g>
		<path d="M493.7,87.1V74.2c0-5.6,4.5-10.1,10.1-10.1h59.1c5.6,0,10.1-4.5,10.1-10.1V20.8c0-5.6-4.5-10.1-10.1-10.1H444.4
			c-5.6,0-10.1,4.5-10.1,10.1v213.5c0,5.6,4.5,10.1,10.1,10.1h118.6c5.6,0,10.1-4.5,10.1-10.1v-32.9c0-5.6-4.5-10.1-10.1-10.1h-59.1
			c-5.6,0-10.1-4.5-10.1-10.1v-20.8c0-5.6,4.5-10.1,10.1-10.1H563c5.6,0,10.1-4.5,10.1-10.1v-32.9c0-5.6-4.5-10.1-10.1-10.1h-59.2
			C498.2,97.2,493.7,92.6,493.7,87.1z"/>
	</g>
</g>
</svg>