<svg xmlns="http://www.w3.org/2000/svg" width="64" height="64" viewBox="0 0 425.2 425.2">
  <rect width="425.2" height="425.2" fill="#2563eb" rx="52"/>
  <g transform="scale(0.7) translate(64,64)">
    <path d="M408.3,37.9v311.8c0,5.7-2.3,11.2-6.3,15.2l-37.6,37.6c-4,4-9.5,6.3-15.2,6.3h-74.6c-11.9,0-21.6-9.7-21.6-21.6v-83.9
	l-1.7,1.7l-53.5,53.5l-43.9,43.9c-4,4-9.5,6.3-15.2,6.3H38.5c-11.9,0-21.6-9.7-21.6-21.6V281.7c0-5.7,2.3-11.2,6.3-15.2l146.3-146.3
	l12.7-12.7l40.9-40.9L253,36.7l14-14c4-4,9.5-6.3,15.2-6.3h104.5C398.7,16.3,408.3,26,408.3,37.9z" fill="#fff"/>
  </g>
</svg>
