<?xml version="1.0" encoding="utf-8"?>
<!-- Generator: Adobe Illustrator 28.0.0, SVG Export Plug-In . SVG Version: 6.00 Build 0)  -->
<svg version="1.1" id="Слой_1" xmlns="http://www.w3.org/2000/svg" xmlns:xlink="http://www.w3.org/1999/xlink" x="0px" y="0px"
	 viewBox="0 0 425.2 425.2" style="enable-background:new 0 0 425.2 425.2;" xml:space="preserve">
<path d="M408.3,37.9v311.8c0,5.7-2.3,11.2-6.3,15.2l-37.6,37.6c-4,4-9.5,6.3-15.2,6.3h-74.6c-11.9,0-21.6-9.7-21.6-21.6v-83.9
	l-1.7,1.7l-53.5,53.5l-43.9,43.9c-4,4-9.5,6.3-15.2,6.3H38.5c-11.9,0-21.6-9.7-21.6-21.6V281.7c0-5.7,2.3-11.2,6.3-15.2l146.3-146.3
	l12.7-12.7l40.9-40.9L253,36.7l14-14c4-4,9.5-6.3,15.2-6.3h104.5C398.7,16.3,408.3,26,408.3,37.9z"/>
</svg>
